PathFileType	4	(X/Y/Z)	s06c0401.trc
DataRate	CameraRate	NumFrames	NumMarkers	Units	OrigDataRate	OrigDataStartFrame	OrigNumFrames
200	200	4	48	mm	200	1250	2000
Frame#	Time	racr			lacr			c7			jug			rlel			rdr			llel			ldr			s2			lic			ric			lasi			rasi			rpsi			lpsi			rgt			lgt			rth1			rth2			rth3			rth4			rlfc			rmfc			rsh1			rsh2			rsh3			rsh4			rlmal			rcal			rtoe			rmt5			lth1			lth2			lth4			lth3			llfc			lmfc			llmal			lcal			lmt5			lsh1			lsh2			lsh3			lsh4			ltoe			SBIKE			LBIKE			RBIKE			
		X1	Y1	Z1	X2	Y2	Z2	X3	Y3	Z3	X4	Y4	Z4	X5	Y5	Z5	X6	Y6	Z6	X7	Y7	Z7	X8	Y8	Z8	X9	Y9	Z9	X10	Y10	Z10	X11	Y11	Z11	X12	Y12	Z12	X13	Y13	Z13	X14	Y14	Z14	X15	Y15	Z15	X16	Y16	Z16	X17	Y17	Z17	X18	Y18	Z18	X19	Y19	Z19	X20	Y20	Z20	X21	Y21	Z21	X22	Y22	Z22	X23	Y23	Z23	X24	Y24	Z24	X25	Y25	Z25	X26	Y26	Z26	X27	Y27	Z27	X28	Y28	Z28	X29	Y29	Z29	X30	Y30	Z30	X31	Y31	Z31	X32	Y32	Z32	X33	Y33	Z33	X34	Y34	Z34	X35	Y35	Z35	X36	Y36	Z36	X37	Y37	Z37	X38	Y38	Z38	X39	Y39	Z39	X40	Y40	Z40	X41	Y41	Z41	X42	Y42	Z42	X43	Y43	Z43	X44	Y44	Z44	X45	Y45	Z45	X46	Y46	Z46	X47	Y47	Z47	X48	Y48	Z48	
1250	6.2500	785.826467	1165.722743	-83.584126	776.309424	1118.900596	-418.108594	837.473395	1246.231728	-261.011493	766.873524	1088.962142	-242.518220	568.262246	1074.835271	71.550691	667.615662	929.743615	-52.688375	545.022162	1050.838524	-543.485540	659.206692	929.054241	-422.959170	256.731243	1220.311604	-196.090908	387.779458	1183.290747	-386.944983	401.048724	1113.020074	-62.354808	400.626537	1131.928613	-358.677597	413.578208	1071.945649	-105.881240	306.757555	1242.459442	-166.915895	295.967791	1251.905010	-226.730286	326.490329	1041.415225	-45.417613	365.734404	1153.707192	-410.680353	329.925232	921.769742	-32.207041	335.524487	832.184887	-39.806880	298.254962	753.824537	-46.333831	370.329859	827.445587	-55.717500	272.616571	649.519627	-58.143358	262.743376	624.236098	-172.557030	228.255315	535.855377	-31.768891	224.775108	449.695282	-49.663737	180.601605	375.022119	-53.478268	249.865502	446.178674	-79.998263	152.066045	302.596549	-61.479139	100.461249	328.559936	-110.082914	234.548766	84.957913	-101.992283	165.538364	158.997154	-36.734515	416.823342	1054.205719	-432.363401	472.135421	1000.487862	-435.170502	519.899993	1028.496612	-410.231469	534.424368	936.763433	-431.401268	586.254144	831.671301	-397.768364	585.517175	818.045990	-277.037200	280.958218	603.642722	-389.573820	202.195861	620.407461	-344.283212	332.241748	470.216022	-410.839135	508.844046	756.352083	-416.586797	452.452183	692.675879	-398.360007	371.930881	658.462771	-404.659738	469.320158	674.701159	-368.794383	402.613846	423.541716	-349.998861	-204.583155	868.541525	-220.844221	-50.500554	80.068511	-420.253085	-50.484489	79.951087	-22.855511	
1251	6.2550	787.727753	1163.407099	-85.344711	776.361666	1116.707162	-417.820012	837.867209	1244.856027	-261.552811	765.473065	1087.394894	-242.990416	569.852909	1074.019443	71.772442	668.065456	928.829091	-52.525984	545.370623	1050.417910	-544.617821	658.712107	929.436215	-422.957612	257.055309	1223.652950	-195.957133	387.276188	1185.541375	-387.037959	400.559599	1116.567864	-59.449310	399.984967	1134.057422	-358.698887	413.077715	1074.103711	-105.362409	307.255190	1245.505602	-166.890491	296.673048	1255.113078	-226.771757	325.962612	1043.455209	-45.446633	363.935251	1156.485840	-409.074494	331.424854	923.337456	-33.328837	339.761948	833.423787	-41.711534	303.620568	754.638938	-48.173367	374.083290	829.878002	-56.956220	278.987565	649.641662	-59.732661	267.267372	625.068271	-173.951613	231.497086	537.194112	-33.562889	224.554389	451.823009	-51.145092	177.045514	378.466015	-55.145387	247.931997	446.636209	-83.911244	146.263870	307.880019	-62.770024	94.565285	334.566977	-110.675479	224.387498	88.812326	-101.895706	156.601795	164.215910	-37.174760	415.779535	1057.587360	-432.429649	470.228037	1003.780773	-435.838891	518.176839	1029.639146	-411.691553	535.153260	938.486284	-430.044996	583.676318	832.542429	-398.185115	583.013175	819.254296	-277.369272	282.892376	596.674273	-390.023912	202.934167	610.635691	-344.766625	340.156095	466.690424	-411.255754	506.569966	756.383837	-417.052809	451.720627	691.019295	-399.374799	372.126320	655.392510	-406.708179	469.344477	673.038068	-370.226965	412.618533	423.522057	-350.111837	-204.564006	868.528772	-220.867557	-50.517046	80.050434	-420.247402	-50.476665	79.917502	-22.878436	
1252	6.2600	788.205669	1162.111694	-86.184482	776.316489	1114.434632	-417.376966	838.267782	1243.494436	-261.957039	763.945501	1086.020354	-243.348252	571.338813	1073.122480	72.175701	668.392454	928.105020	-52.130571	545.469844	1049.993229	-545.730167	658.188275	929.757223	-422.896104	257.570489	1226.904131	-196.043828	387.172115	1187.536321	-386.450886	399.975891	1119.071345	-59.904713	398.278343	1135.399970	-358.401135	412.509095	1076.571759	-104.826841	307.799252	1248.472361	-167.213759	297.500309	1258.187995	-227.023616	325.410709	1045.662079	-45.450407	363.883024	1159.336617	-409.115203	333.800633	924.629946	-35.197863	344.193997	835.148083	-43.256766	310.263933	755.535142	-50.088325	378.594444	832.635040	-58.197059	286.351543	650.141338	-61.681480	272.596059	625.983964	-175.125066	235.639736	538.681210	-35.328631	224.974499	453.984827	-53.158701	174.390139	382.508185	-56.669673	247.513192	447.781840	-86.378808	140.945158	313.745812	-63.825423	89.035438	341.155031	-111.307616	214.478767	93.332658	-101.715966	147.970892	170.009161	-37.577903	414.336249	1060.335045	-432.878999	468.226736	1006.605806	-436.476054	516.023586	1030.197567	-413.412538	534.332022	939.790724	-429.506878	580.409097	832.226424	-398.394784	579.379077	818.696399	-278.065098	284.619448	588.700805	-390.268390	203.487930	599.723141	-344.963183	347.427636	462.318565	-411.244120	503.678393	754.957955	-417.612898	450.427135	688.200186	-400.364636	371.802625	650.798991	-407.626726	468.856466	670.556950	-371.970544	422.218660	423.211029	-350.779867	-204.533197	868.564381	-220.882892	-50.502861	80.061237	-420.242960	-50.491249	80.041960	-22.868168	
1253	6.2650	786.635217	1161.636771	-86.108434	776.151678	1112.159499	-416.795723	838.664929	1242.143225	-262.207070	764.084538	1087.360441	-238.081565	572.617689	1071.982027	72.736851	668.429766	927.522780	-51.837134	545.302665	1049.470122	-546.526659	657.698453	929.981238	-422.829515	258.000947	1230.223874	-196.596077	386.242959	1189.534648	-387.559894	399.135144	1121.596471	-59.812071	397.821533	1137.456754	-359.357732	411.973249	1079.333334	-104.059650	308.394895	1251.492747	-167.817324	298.531818	1261.035342	-227.467889	324.930307	1048.189192	-45.472783	363.602630	1161.754158	-409.440732	336.340815	926.141769	-36.063567	348.826464	837.387908	-44.912026	317.258735	756.607605	-51.939088	384.017297	835.453082	-58.890552	294.914913	650.492319	-63.601844	278.359043	627.206377	-176.829195	240.758086	540.792929	-37.012812	226.413521	456.794880	-55.129856	172.824440	387.292279	-58.071600	247.901062	449.795608	-88.993893	136.057439	320.087841	-64.800010	84.066718	348.423571	-111.797315	204.964363	98.454675	-101.562852	139.793471	176.413212	-37.878378	412.654247	1062.255699	-433.316934	466.169731	1008.877921	-437.048028	513.482619	1030.183782	-415.340844	532.019437	940.420568	-429.593419	576.221658	830.863310	-399.212998	574.839777	816.659255	-279.098177	285.811589	580.307064	-390.316038	203.824355	587.837083	-344.946477	354.216002	457.617540	-411.584958	500.309308	751.978366	-418.249525	448.575490	684.077533	-401.273296	370.713650	644.961701	-408.030041	467.662167	666.911811	-373.112382	430.786999	422.365481	-351.075547	-204.509854	868.646549	-220.970185	-50.524642	80.031186	-420.152625	-50.537694	80.230481	-22.847565	
